<svg xmlns="http://www.w3.org/2000/svg" xmlns:xlink="http://www.w3.org/1999/xlink" width="79" height="79" viewBox="0 0 79 79">
  <defs>
    <clipPath id="clip-path">
      <rect id="Rectangle_8" data-name="Rectangle 8" width="79" height="79" transform="translate(-0.04 0.2)" fill="#030657" stroke="#707070" stroke-width="1"/>
    </clipPath>
  </defs>
  <g id="Mask_Group_3" data-name="Mask Group 3" transform="translate(0.04 -0.2)" clip-path="url(#clip-path)">
    <g id="Layer_3" transform="translate(0 6.323)">
      <g id="Group_1" data-name="Group 1" transform="translate(0 0)">
        <path id="Path_745" data-name="Path 745" d="M.039,70.7a41.667,41.667,0,0,0,2.55,6.216H76.445A41.577,41.577,0,0,0,79,70.7Z" transform="translate(-0.039 -10.601)" fill="#030657"/>
        <path id="Path_746" data-name="Path 746" d="M23.74,64.179H44.465a10.345,10.345,0,0,0,10.044-7.931,42.586,42.586,0,0,0,10.146-6.782c.068-.066.145-.12.209-.186.01-.01.023-.018.033-.03v-.01a8.279,8.279,0,0,0-5.926-14.073H54.828V31.109H13.379V53.817A10.363,10.363,0,0,0,23.74,64.179ZM54.826,39.31h4.143a4.144,4.144,0,0,1,4.146,4.146,4.019,4.019,0,0,1-.37,1.683,5.853,5.853,0,0,1-.789,1.133,3.542,3.542,0,0,1-.3.313l-.01.038a22.14,22.14,0,0,1-6.825,4.62V39.31Z" transform="translate(-0.839 -8.225)" fill="#030657"/>
        <path id="Path_747" data-name="Path 747" d="M25.085,24.544a8.384,8.384,0,0,0,.51.871h1.928c-.012-.023-.028-.04-.04-.063a8.85,8.85,0,0,1,.342-8.633,8.607,8.607,0,0,0,.576-.831c.033-.043.061-.086.1-.123a7.622,7.622,0,0,0,.66-1.437,8.722,8.722,0,0,0-.718-7.562H26.723c.082.2.161.394.232.6a8.843,8.843,0,0,1-1.041,7.753h.01s-.179.257-.418.664a8.841,8.841,0,0,0-.986,2.134,7.432,7.432,0,0,0-.366,1.591.108.108,0,0,1,.028-.013A8.835,8.835,0,0,0,25.085,24.544Z" transform="translate(-1.484 -6.765)" fill="#030657"/>
        <path id="Path_748" data-name="Path 748" d="M33.564,24.544a8.688,8.688,0,0,0,.51.871H36c-.012-.023-.028-.04-.038-.063a8.846,8.846,0,0,1,.342-8.633,8.912,8.912,0,0,0,.576-.831c.033-.043.061-.086.094-.123a7.623,7.623,0,0,0,.66-1.437,8.722,8.722,0,0,0-.718-7.562H35.2c.082.2.161.394.232.6a8.843,8.843,0,0,1-1.041,7.753h.012s-.179.257-.418.664A8.909,8.909,0,0,0,33,17.913a7.429,7.429,0,0,0-.364,1.591.1.1,0,0,1,.026-.013A8.835,8.835,0,0,0,33.564,24.544Z" transform="translate(-1.992 -6.765)" fill="#030657"/>
        <path id="Path_749" data-name="Path 749" d="M42.045,24.544a8.1,8.1,0,0,0,.51.871h1.928c-.01-.023-.026-.04-.038-.063a8.846,8.846,0,0,1,.344-8.633,8.573,8.573,0,0,0,.573-.831c.033-.043.061-.086.094-.123a7.65,7.65,0,0,0,.665-1.437A8.8,8.8,0,0,0,46.2,8.466a8.631,8.631,0,0,0-.79-1.7H43.685c.084.2.165.394.232.6a8.827,8.827,0,0,1-1.039,7.753h.012s-.179.257-.418.664a8.909,8.909,0,0,0-.988,2.134A7.429,7.429,0,0,0,41.12,19.5a.131.131,0,0,1,.026-.013A8.779,8.779,0,0,0,42.045,24.544Z" transform="translate(-2.501 -6.765)" fill="#030657"/>
      </g>
    </g>
  </g>
</svg>
