<svg xmlns="http://www.w3.org/2000/svg" xmlns:xlink="http://www.w3.org/1999/xlink" width="66" height="65" viewBox="0 0 66 65">
  <defs>
    <clipPath id="clip-path">
      <rect id="Rectangle_36" data-name="Rectangle 36" width="66" height="65" transform="translate(-0.036 -0.314)" fill="#fff"/>
    </clipPath>
  </defs>
  <g id="Mask_Group_5" data-name="Mask Group 5" transform="translate(0.036 0.314)" clip-path="url(#clip-path)">
    <g id="_x31_7_x2C_team_x2C_group_x2C_meeting_x2C_business" transform="translate(6.317 3.496)">
      <g id="Group_2" data-name="Group 2" transform="translate(0 0)">
        <path id="Path_750" data-name="Path 750" d="M44.06,30.348a5.278,5.278,0,1,0-5.278-5.28A5.284,5.284,0,0,0,44.06,30.348Z" transform="translate(-21.748 -9.089)" fill="#fff"/>
        <path id="Path_751" data-name="Path 751" d="M35.436,12.658A4.238,4.238,0,1,0,31.2,8.418,4.244,4.244,0,0,0,35.436,12.658Z" transform="translate(-19.364 -4.181)" fill="#fff"/>
        <path id="Path_752" data-name="Path 752" d="M64.935,28.554a5.278,5.278,0,1,0-5.277-5.277A5.284,5.284,0,0,0,64.935,28.554Z" transform="translate(-28.312 -8.525)" fill="#fff"/>
        <path id="Path_753" data-name="Path 753" d="M23.432,28.554a5.278,5.278,0,1,0-5.277-5.277A5.283,5.283,0,0,0,23.432,28.554Z" transform="translate(-15.263 -8.525)" fill="#fff"/>
        <path id="Path_754" data-name="Path 754" d="M53.639,12.658A4.238,4.238,0,1,0,49.4,8.418,4.243,4.243,0,0,0,53.639,12.658Z" transform="translate(-25.087 -4.181)" fill="#fff"/>
        <path id="Path_755" data-name="Path 755" d="M48.379,58.5A2.7,2.7,0,0,0,50.9,56.223s0,0,0,0V45.254c0-.007,0-.013-.007-.02-.839-3.759-4.857-5.508-8.235-5.542-2.544-.022-5.68.934-7.289,3.559a.5.5,0,0,1-.188.328,7.02,7.02,0,0,0-.62,1.613V56.163a.5.5,0,0,1,.033.085,2.708,2.708,0,0,0,2.49,2.305v-6.6h1V72.935h4.149V59.517h1V72.935H47.38V51.913h1V58.5Z" transform="translate(-20.422 -15.346)" fill="#fff"/>
        <path id="Path_756" data-name="Path 756" d="M63.326,37.785c-2.687.22-5.5,1.8-5.734,4.83a.5.5,0,0,1-.012.069,7.046,7.046,0,0,1,.589,1.566.5.5,0,0,1,.07.251V55.61a19.869,19.869,0,0,1-.024.233,3.673,3.673,0,0,1-3.5,3.046V71.1h8.167V57.678h1V71.1h4.145V50.118h1v6.6a2.705,2.705,0,0,0,2.493-2.305.485.485,0,0,1,.033-.085V43.346C70.485,39.127,66.661,37.511,63.326,37.785Z" transform="translate(-26.757 -14.737)" fill="#fff"/>
        <path id="Path_757" data-name="Path 757" d="M27.15,55.906a1.95,1.95,0,0,0-.07-.3V44.5h0a.493.493,0,0,1,.036-.181,7.93,7.93,0,0,1,.756-1.907c-.341-2.9-3.088-4.409-5.713-4.624-3.334-.273-7.162,1.344-8.224,5.567V54.324a.5.5,0,0,1,.033.085,2.708,2.708,0,0,0,2.492,2.305v-6.6h1V71.056h4.147V57.678h1V71.056h8V58.945A3.673,3.673,0,0,1,27.15,55.906Z" transform="translate(-13.936 -14.737)" fill="#fff"/>
      </g>
    </g>
  </g>
</svg>
